<svg xmlns="http://www.w3.org/2000/svg" viewBox="0 0 219.5 49.65"><title>Traveloka logo</title><path d="M602.25,499.34c8.64-5.5,19.5-6.55,19.5-6.55s-11.51,13.09-14.33,19.13a5.33,5.33,0,0,0,1,4.78S603.33,511.06,602.25,499.34Z" transform="translate(-402.25 -487.18)" style="fill:#1ba0e2"/><path d="M606,497.27a35.8,35.8,0,0,0-3.74,2.07,37.66,37.66,0,0,0,3.53,13.22c.76,1.34,1.48,2.46,2,3.26a5.47,5.47,0,0,1-.61-2.14C606.46,510.87,605.79,505.91,606,497.27Z" transform="translate(-402.25 -487.18)" style="fill:#0d7fcc"/><path d="M594.51,504.45s-.57-2-.76-2.58a16,16,0,0,1-1.07-5.83c0-3.69,6.29-7.64,10.13-8.87-1,13.45.47,17.56,1.86,22,3.29,11,10.82,12.59,11.56,13.33-1.92-.41-.82.48-.82.48a33.36,33.36,0,0,0-9.23-3.87c-6.17-1.74-11-2-13.92-3.68-2.27-1.7-2.34-3.09-3.42-4-3.54-3.06-12.45-4.34-12.45-4.34l7.66,1.25a7.54,7.54,0,0,0,2.3-.45,3.23,3.23,0,0,1,3-.39,12,12,0,0,0,2.72,1.14C594.8,509.42,594.51,504.45,594.51,504.45Z" transform="translate(-402.25 -487.18)" style="fill:#1ba0e2"/><path d="M405.32,527.66c0,7.86,6,8.79,9,8.79a12.34,12.34,0,0,0,1.58-.09v-4a5.42,5.42,0,0,1-1.07.09c-1.72,0-5-.6-5-5.3V516.68h5.67v-3.63h-5.67v-6.79h-4.37v6.79h-3.21v3.63h3.07Zm14.74,8.61h4.51v-9.63a14.32,14.32,0,0,1,.56-4.23c1.07-3.49,3.72-5.54,6.6-5.54a6.48,6.48,0,0,1,1.3.14v-4.47a8,8,0,0,0-1.16-.09c-3.62,0-6.37,2.7-7.43,6.14h-.09a16.9,16.9,0,0,0,.09-1.77v-4.09h-4.37Zm14.47-6.61c0,4.7,3.95,7.16,8,7.16a8.13,8.13,0,0,0,7.53-4.65h.09a17.69,17.69,0,0,0-.09,1.86v2.23h4.18V521.38c0-6-3.35-9.21-9.29-9.21a14.74,14.74,0,0,0-8.78,2.79l1.86,3.3a11.91,11.91,0,0,1,6.55-2.28c3,0,5.16,1.3,5.16,5.16v.42h-1c-3.95,0-14.17.33-14.17,8.09Zm4.55-.23c0-4.23,6.13-4.47,9.52-4.47h1.16v.74c0,3.49-2.46,7.49-6.27,7.49-2.93,0-4.41-1.86-4.41-3.77Zm26.55,6.84h5.2l8.69-23.54h-4.74l-5.71,15.91c-.46,1.3-.79,3.21-.84,3.21h-.09s-.33-1.91-.79-3.21l-5.71-15.91h-4.79Zm15.08-11.77a12,12,0,0,0,12.45,12.33,14,14,0,0,0,9.11-3.35l-1.86-3.3a11.2,11.2,0,0,1-7,2.74,7.69,7.69,0,0,1-8.08-7.77H502.5s.14-1.35.14-2c0-6.09-3.53-11-10.17-11s-11.75,4.84-11.75,12.33Zm4.79-2.74a6.74,6.74,0,0,1,6.88-6c3,0,5.53,2,5.67,6Zm21.3,8.09c0,5.91,3.76,6.61,6.32,6.61a12.64,12.64,0,0,0,1.49-.09v-4a7.16,7.16,0,0,1-.79,0c-1.39,0-2.51-.51-2.51-3.35V503.42H506.8Zm9.83-5.4a12.69,12.69,0,0,0,25.37,0c0-7.12-5.67-12.28-12.68-12.28s-12.68,5.16-12.68,12.28Zm4.6,0a8.09,8.09,0,1,1,8.08,8.47,8.1,8.1,0,0,1-8.08-8.47Zm25.2,11.82h4.51V525.19h3.39l7.06,11.07h5.25L558,523.19v-.09l7.81-10.37h-5.11l-6.41,8.65h-3.3v-18h-4.51Zm21.49-6.61c0,4.7,3.95,7.16,8,7.16a8.13,8.13,0,0,0,7.53-4.65h.09a17.69,17.69,0,0,0-.09,1.86v2.23h4.18V521.38c0-6-3.35-9.21-9.29-9.21a14.74,14.74,0,0,0-8.78,2.79l1.86,3.3A11.91,11.91,0,0,1,578,516c3,0,5.16,1.3,5.16,5.16v.42h-1c-3.95,0-14.17.33-14.17,8.09Zm4.55-.23c0-4.23,6.13-4.47,9.52-4.47h1.16v.74c0,3.49-2.46,7.49-6.27,7.49-2.93,0-4.41-1.86-4.41-3.77Z" transform="translate(-402.25 -487.18)" style="fill:#434343"/></svg>